# xmcd
#
# Track frame offsets:
#	150
#	13029
#	30704
#	47173
#	64601
#	77957
#	94754
#	107420
#	123538
#	140259
#	157716
#	176804
#	193631
#
# Disc length: 2772 seconds
#
# Revision: 0
# Processed by: cddbd v1.5.2PL0 Copyright (c) Steve Scherf et al.
# Submitted via: dBpowerAMP V4.0
#
DISCID=a40ad20d
DTITLE=Jill Johnson - The woman I've become
DYEAR=2006
DGENRE=Country
TTITLE0=Till The Cowboys Come Home
TTITLE1=When Love Doesn't Love You
TTITLE2=Blessed Are The Broken Hearted
TTITLE3=Baby Don't Go
TTITLE4=Same Everything
TTITLE5=Cowboy Up
TTITLE6=I'm Sorry
TTITLE7=Something I Can't Do
TTITLE8=Love Ain't Nothin'
TTITLE9=Too Late To Be Drinkin'
TTITLE10=Everybody Smile
TTITLE11=Red Corvette
TTITLE12=The Woman I've Become
EXTD=
EXTT0=
EXTT1=
EXTT2=
EXTT3=
EXTT4=
EXTT5=
EXTT6=
EXTT7=
EXTT8=
EXTT9=
EXTT10=
EXTT11=
EXTT12=
PLAYORDER=
